<svg viewBox="0 0 24 24" xmlns="http://www.w3.org/2000/svg"><path fill-rule="evenodd" clip-rule="evenodd" d="M4 3a2 2 0 00-2 2v14a2 2 0 002 2h16a2 2 0 002-2V5a2 2 0 00-2-2H4zm.666 2A.667.667 0 004 5.667v12.666c0 .369.298.667.666.667h14.667a.667.667 0 00.667-.667V5.667A.667.667 0 0019.333 5H4.666z"></path><path fill-rule="evenodd" clip-rule="evenodd" d="M7 15a1 1 0 100 2h2a1 1 0 100-2H7zM7 7a1 1 0 100 2h2a1 1 0 100-2H7z"></path><path d="M7 9h2v6H7z"></path><path opacity="0.01" d="M23.666.333h-23v23h23z"></path></svg>