<svg xmlns="http://www.w3.org/2000/svg" viewBox="0 0 24 24"><path d="M13.754 10.295a4.452 4.452 0 01.159 6.133l-.158.166-3.151 3.151a4.454 4.454 0 01-6.457-6.133l.158-.166 1.55-1.55a1 1 0 011.498 1.32l-.084.095-1.55 1.55a2.454 2.454 0 003.342 3.59l.128-.12 3.152-3.151c.959-.958.959-2.512 0-3.47a1 1 0 111.413-1.415zm5.906-5.99a4.454 4.454 0 01.157 6.133l-.158.167-1.55 1.549a1 1 0 01-1.497-1.321l.083-.094 1.55-1.549a2.454 2.454 0 00-3.342-3.59l-.128.12-3.151 3.15a2.454 2.454 0 00-.12 3.343l.12.128a1 1 0 11-1.415 1.414 4.454 4.454 0 01-.157-6.133l.157-.166 3.151-3.15a4.452 4.452 0 016.3 0z"></path></svg>