<svg viewBox="0 0 24 24" xmlns="http://www.w3.org/2000/svg"><path fill-rule="evenodd" clip-rule="evenodd" d="M4 3a2 2 0 00-2 2v14a2 2 0 002 2h16a2 2 0 002-2V5a2 2 0 00-2-2H4zm.666 2A.667.667 0 004 5.667v12.666c0 .369.298.667.666.667h14.667a.667.667 0 00.667-.667V5.667A.667.667 0 0019.333 5H4.666z"></path><path opacity="0.01" d="M0 0h24v24H0z"></path><path fill-rule="evenodd" clip-rule="evenodd" d="M9.2 7.7c.138 0 .27.028.39.079l.12.058 5.686 3.283a.953.953 0 01-.001 1.73v.002l-5.688 3.284-.01.002a1 1 0 01-1.49-.751l-.004-.067H8.2V8.7l.006-.117A1 1 0 019.2 7.7zm1 2.73v3.111l2.696-1.556L10.2 10.43z"></path></svg>